<svg width="718" height="132" viewBox="0 0 718 132" fill="none" xmlns="http://www.w3.org/2000/svg">
<rect x="4" y="4" width="710" height="124" stroke="#262626" stroke-width="7"/>
<path d="M50.352 103H36.528V29.752H59.376L74.544 86.296L89.616 29.752H112.656V103H98.832V40.12L81.36 103H67.824L50.352 40.504V103ZM130.964 103H116.468L142.292 29.752H157.46L183.284 103H168.788L163.796 87.928H135.86L130.964 103ZM149.876 44.824L139.796 75.832H159.956L149.876 44.824ZM237.809 103H183.184V93.496L220.337 42.136H185.296V29.752H237.713V39.736L201.137 90.616H237.809V103ZM274.621 104.344C266.877 104.344 260.317 102.648 254.941 99.256C249.629 95.8 245.661 91.192 243.037 85.432C240.413 79.672 239.101 73.304 239.101 66.328C239.101 59.352 240.413 53.016 243.037 47.32C245.661 41.56 249.629 36.984 254.941 33.592C260.317 30.136 266.877 28.408 274.621 28.408C282.429 28.408 288.99 30.136 294.302 33.592C299.677 36.984 303.677 41.56 306.302 47.32C308.926 53.016 310.238 59.352 310.238 66.328C310.238 73.304 308.926 79.672 306.302 85.432C303.677 91.192 299.677 95.8 294.302 99.256C288.99 102.648 282.429 104.344 274.621 104.344ZM274.621 91.96C281.277 91.96 286.462 89.624 290.174 84.952C293.95 80.28 295.838 74.072 295.838 66.328C295.838 58.584 293.95 52.408 290.174 47.8C286.462 43.192 281.277 40.888 274.621 40.888C268.03 40.888 262.845 43.224 259.069 47.896C255.357 52.504 253.501 58.648 253.501 66.328C253.501 74.072 255.357 80.28 259.069 84.952C262.845 89.624 268.03 91.96 274.621 91.96ZM368.691 104.344C363.571 104.344 358.675 103.512 354.003 101.848C349.331 100.184 345.363 97.496 342.099 93.784C338.899 90.008 337.011 85.144 336.435 79.192H350.739C351.827 83.992 354.003 87.416 357.267 89.464C360.531 91.512 364.371 92.536 368.787 92.536C372.819 92.536 376.051 91.704 378.483 90.04C380.915 88.312 382.131 85.784 382.131 82.456C382.131 80.088 381.363 78.2 379.827 76.792C378.291 75.32 376.339 74.232 373.971 73.528C371.667 72.76 368.499 71.928 364.467 71.032C358.963 69.816 354.515 68.568 351.123 67.288C347.795 66.008 344.915 63.992 342.483 61.24C340.051 58.488 338.835 54.712 338.835 49.912C338.835 45.304 339.955 41.4 342.195 38.2C344.435 34.936 347.507 32.504 351.411 30.904C355.315 29.24 359.763 28.408 364.755 28.408C369.619 28.408 374.131 29.272 378.291 31C382.451 32.664 385.939 35.256 388.755 38.776C391.571 42.232 393.363 46.488 394.131 51.544H380.019C379.123 47.768 377.267 44.952 374.451 43.096C371.699 41.176 368.371 40.216 364.467 40.216C360.883 40.216 358.003 40.984 355.827 42.52C353.651 43.992 352.563 46.072 352.563 48.76C352.563 50.872 353.299 52.568 354.771 53.848C356.243 55.128 358.067 56.12 360.243 56.824C362.419 57.528 365.459 58.328 369.363 59.224C374.931 60.44 379.475 61.72 382.995 63.064C386.579 64.408 389.651 66.584 392.211 69.592C394.771 72.6 396.051 76.664 396.051 81.784C396.051 88.76 393.619 94.264 388.755 98.296C383.955 102.328 377.267 104.344 368.691 104.344ZM432.679 103H418.855V42.136H396.487V29.752H454.951V42.136H432.679V103ZM487.964 104.344C477.852 104.344 470.396 101.88 465.596 96.952C460.796 91.96 458.396 85.112 458.396 76.408V29.752H472.316V76.408C472.316 81.336 473.532 85.176 475.964 87.928C478.396 90.616 482.396 91.96 487.964 91.96C493.532 91.96 497.532 90.616 499.964 87.928C502.396 85.176 503.612 81.336 503.612 76.408V29.752H517.532V76.408C517.532 85.112 515.1 91.96 510.236 96.952C505.436 101.88 498.012 104.344 487.964 104.344ZM526.585 103V29.752H547.897C560.249 29.752 569.721 32.92 576.313 39.256C582.905 45.592 586.201 54.648 586.201 66.424C586.201 78.136 582.873 87.16 576.217 93.496C569.625 99.832 560.185 103 547.897 103H526.585ZM547.705 90.616C555.513 90.616 561.561 88.76 565.849 85.048C570.201 81.272 572.377 75.064 572.377 66.424C572.377 58.232 570.201 52.152 565.849 48.184C561.497 44.152 555.481 42.136 547.801 42.136H540.409V90.616H547.705ZM606.893 103H593.069V29.752H606.893V103ZM649.352 104.344C641.608 104.344 635.048 102.648 629.672 99.256C624.36 95.8 620.392 91.192 617.768 85.432C615.144 79.672 613.832 73.304 613.832 66.328C613.832 59.352 615.144 53.016 617.768 47.32C620.392 41.56 624.36 36.984 629.672 33.592C635.048 30.136 641.608 28.408 649.352 28.408C657.16 28.408 663.72 30.136 669.032 33.592C674.408 36.984 678.408 41.56 681.032 47.32C683.656 53.016 684.968 59.352 684.968 66.328C684.968 73.304 683.656 79.672 681.032 85.432C678.408 91.192 674.408 95.8 669.032 99.256C663.72 102.648 657.16 104.344 649.352 104.344ZM649.352 91.96C656.008 91.96 661.192 89.624 664.904 84.952C668.68 80.28 670.568 74.072 670.568 66.328C670.568 58.584 668.68 52.408 664.904 47.8C661.192 43.192 656.008 40.888 649.352 40.888C642.76 40.888 637.576 43.224 633.8 47.896C630.088 52.504 628.232 58.648 628.232 66.328C628.232 74.072 630.088 80.28 633.8 84.952C637.576 89.624 642.76 91.96 649.352 91.96Z" fill="#262626"/>
<circle cx="325" cy="66" r="7" fill="#262626"/>
</svg>
